Patient4_TMGait_0pt8_01_right_24_EMG.mot
version=1
nRows=26
nColumns=33
inDegrees=no
endheader
time	1LAddLong	2LGlutMax	3LGlutMed	4LIliopsoas	5LSemiMemb	6LBicFemLong	7LRecFem	8LVastMed	9LVastLat	10LGasMed	11LTibAnt	12lTibPost	13LPeroneusLong	14LSol	15LExtDigLong	16LFlexDigLong	17RAddLong	18RGlutMax	19RGlutMed	20RIliopsoas	21RSemiMemb	22RBicFemLong	23RRecFem	24RVastMed	25RVastLat	26RGasMed	27RTibAnt	28RTibPost	29RPeroneusLong	30RSol	31RExtDigLong	32RFlexDigLong
27.998	0	0.15152	-0.001373	0.01709	0.049896	0.010529	0.27496	0.01297	-0.019836	0.45944	0.002899	0.015564	-0.085907	0.15091	0.005188	0.014496	0.045166	-0.029449	-0.00061	-0.061493	0.027466	-0.060425	-0.096588	-0.088043	-0.049438	-0.076752	0.16174	0.007172	-0.36453	0.15167	-0.002747	-0.011292
27.999	-0.00412	0.20157	0.099335	0.00412	0.042877	0.031738	0.31265	0.00824	-0.020599	0.38147	-0.009613	-0.014496	0.028076	0.31723	-0.001068	-0.006866	0.051727	-0.018921	0.28076	-0.029144	-0.02182	-0.068207	-0.090179	-0.08728	-0.058289	-0.086212	-0.033722	-0.001984	-0.2092	0.11337	-0.004272	-0.008698
28	-0.007477	0.21866	0.033417	0.010834	0.027466	-0.009613	0.28397	0.012207	-0.020752	-0.67963	-0.019531	-0.011292	0.12009	0.24139	-0.010834	0.002594	0.025787	0.014648	0.25436	0.001831	-0.11566	-0.022278	-0.11643	-0.097961	-0.051575	-0.11444	-0.052185	-0.005341	-0.1001	0.079498	-0.004272	-0.023041
28.001	-0.005035	0.21057	-0.048065	-0.014343	0.02533	-0.05661	0.21316	0.014496	0.001068	-1.0764	-0.003204	-0.00885	0.11322	-0.11337	-0.032959	0.033112	-0.005798	0.020294	0.23346	-0.000916	-0.21149	0.046844	-0.068512	0.005035	-0.041199	-0.13947	0.01297	-0.007019	-0.28244	0.015411	-0.004425	-0.013733
28.002	0.000458	0.11993	-0.032806	-0.001831	0.074768	-0.05661	0.11658	0.007782	0.00061	-0.58426	0.011749	0.003662	0.001984	-0.10223	-0.052338	0.029449	-0.035248	-0.025482	0.3595	-0.062866	-0.12848	0.1236	-0.11322	0.028534	-0.039368	-0.15243	-0.007019	-0.002747	-0.77393	-0.04776	-0.009613	-0.012665
28.003	0.008392	0.12955	0.041351	0.007477	0.063782	0.013123	0.10437	0.002136	-0.008392	-0.3125	0.014648	0.013428	0.017548	0.27069	0.00351	-0.12161	-0.070801	-0.043945	0.33203	-0.023804	0.121	0.11749	-0.090027	0.057678	-0.016632	-0.19562	-0.022583	-0.000763	-0.74982	-0.05188	-0.007477	-0.018311
28.004	0.002594	0.080719	0.059967	0.010986	0.044861	0.07782	0.1976	-0.002899	-0.001678	-0.21881	0.005798	-0.001526	-0.011902	0.49927	0.030212	-0.17227	-0.025024	-0.084839	0.13031	0.009766	0.011139	0.069275	-0.084076	0.006866	-0.018311	-0.24002	0.059357	-0.004883	-0.21301	-0.032654	-0.007935	-0.014343
28.005	-0.006409	0.05127	0.054779	0.020752	0.031128	0.13947	0.21423	-0.002136	-0.033875	0.21484	0.027771	-0.022278	-0.079651	0.31693	0.006409	-0.03067	0.032349	-0.089264	-0.088959	-0.043182	-0.010681	0.010529	-0.074005	0.003204	-0.042877	-0.32028	0.082703	0.000763	0.47821	-0.027313	-0.006866	-0.009155
28.006	-0.014496	0.052948	0.014496	0.007019	0.01709	0.121	0.24307	0.004883	-0.046387	0.22888	0.014038	0.066223	-0.11459	-0.059814	-0.030212	0.040894	0.032654	-0.11978	-0.088654	-0.038452	-0.033569	-0.011139	-0.05127	-0.015869	-0.031281	-0.40588	0.038605	-0.003662	0.83695	-0.047302	-0.003815	0.000916
28.007	-0.009155	0.042877	-0.061646	0.014496	-0.00824	0.075531	0.24719	0.006561	-0.057526	0.14206	-0.001831	0.15915	-0.05188	-0.18372	-0.023956	0.072632	0.028687	-0.06073	-0.1149	0.046692	-0.062256	0.00061	-0.060577	-0.024719	-0.016632	-0.45761	0.052948	-0.005951	-0.034485	-0.013885	-0.001221	0.002747
28.008	-0.011139	0.038605	-0.073547	0.010834	-0.000153	0.04837	0.24185	0.004272	-0.082855	0.12573	-0.005951	0.056	-0.030823	0.14236	-0.012665	0.058746	0.036926	-0.014648	-0.005188	0.1149	-0.19562	-0.002289	-0.045471	-0.023956	-0.013428	-0.36621	0.10498	-0.005493	-0.24643	-0.030365	-0.00412	0.007019
28.009	-0.00885	0.032501	-0.057983	-0.007782	0.065613	-0.10254	0.18723	0.007324	-0.096893	0.19287	-0.002594	-0.094299	0.012054	0.19577	-0.011292	0.013733	0.027008	-0.052032	-0.027618	0.095673	-0.31799	0.012817	-0.090027	-0.046387	-0.027618	-0.13733	0.065613	-0.002441	-0.12039	-0.060577	-0.002136	0.014648
28.01	-0.006256	-0.007477	-0.074768	-0.012207	0.056	-0.10269	0.22095	0.001068	-0.054169	-0.02182	0.000305	-0.003204	0.007629	0.28931	0.016785	-0.005951	0.011139	-0.049744	0.28076	0.066681	-0.38742	0.06485	-0.04837	-0.037384	-0.030518	0.11383	0.022888	0.000305	0.07309	-0.016327	-0.004578	0.008392
28.011	-0.000763	0.007019	0.007324	-0.010223	0.023041	-0.029602	0.25772	0.000305	-0.015869	-0.17502	-0.011139	0.040894	0.074768	0.063324	0.008392	0.090179	-0.003052	-0.047455	0.55206	0.039368	-0.11078	0.083618	-0.065918	-0.050201	-0.020447	0.33447	0.040283	-0.001678	0.18982	-0.001068	-0.004578	0.008087
28.012	0.000763	-0.005035	0.022888	-0.010376	0.022583	-0.014038	0.24811	0.001526	-0.017395	-0.25726	-0.001221	-0.18387	0.061188	-0.16205	-0.01709	0.042267	-0.04837	-0.055389	0.18875	0.003967	0.4042	0.075073	-0.053711	-0.005646	-0.010681	0.50858	0.020142	0	0.14313	-0.033264	-0.003967	0.005188
28.013	0.003357	-0.03952	0.058899	0.01297	0.017548	-0.009308	0.2655	-0.000458	0.047607	-0.29739	0.002441	0.018463	0.074615	-0.12787	-0.002594	0.005951	-0.059357	-0.063782	-0.068359	-0.011292	0.27008	0.009918	-0.068054	-0.018463	-0.008392	0.62118	0.029449	-0.001831	-0.07431	-0.028076	-0.007782	-0.005188
28.014	0.001984	-0.081482	-0.04715	0.014801	0.028839	0.02243	0.26108	0.000305	0.095978	-0.2121	0.01358	0.29999	0.11566	-0.50461	-0.013275	-0.081329	-0.057373	-0.075531	0.28793	-0.025635	0.10803	0.024567	-0.046844	-0.019531	-0.020752	0.73029	0.040283	-0.000153	0.034027	-0.037689	-0.004883	0.005951
28.015	-0.007782	-0.11337	-0.041046	0.006409	0.010986	0.045319	0.28442	0.001526	0.056305	-0.12894	-0.002136	0.11643	0.10239	-0.56656	-0.029602	-0.022736	-0.013885	-0.094299	0.12528	-0.024109	0	0.072479	-0.092468	0.027771	-0.012817	0.76126	0.063629	-0.002136	0.17136	-0.013885	-0.009613	0.014038
28.016	0.00412	-0.11643	-0.10422	-0.012207	0.023499	0.026245	0.28809	0.007477	0.048218	-0.006714	-0.11429	-0.22201	0.022125	-0.094757	-0.013733	-0.056458	0.004883	-0.11002	-0.061646	0.071106	-0.039673	0.061035	-0.081482	-0.008392	-0.007324	0.68085	0.079498	-0.007019	-0.092621	0.01358	-0.002899	0.002899
28.017	-0.003204	-0.15884	0.028381	-0.00473	0.019073	0.056763	0.23697	0.003204	0.038757	0.029449	-0.1181	0.019989	-0.033112	0.23682	0.016174	-0.000153	0.002441	-0.048981	-0.06897	0.090637	0.016632	0.02182	-0.082855	0.001831	-0.010071	0.53696	0.065613	-0.006409	-0.19196	-0.039215	-0.006256	0.009003
28.018	-0.002136	-0.14816	0.020142	-0.013123	0.023041	0.066071	0.26321	0.007172	0.018616	-0.068207	-0.097198	0.030518	0.002899	0.07431	0.13001	0.041962	-0.021362	-0.013733	0.020142	-0.077209	0.075684	0.003204	-0.084076	0.058441	-0.007019	0.36957	0.065155	-0.002136	0.050201	-0.029144	-0.005798	0.008392
28.019	-0.000153	-0.13016	0.001678	0.004578	0.031281	0.055695	0.30243	0.003204	0.023956	-0.15778	-0.039368	0.003967	0.081787	0.010223	0.059052	0.001373	-0.013428	-0.054626	-0.006409	-0.15808	0.021057	-0.011597	-0.088806	0.044403	-0.015259	0.22919	0.048218	-0.002899	0.066223	-0.053558	-0.005341	0.016937
28.02	-0.010529	-0.17502	-0.054321	0.001221	0.024872	0.041504	0.31784	-0.000458	-0.007172	0.080261	0.016632	-0.011292	0.12924	0.10681	-0.037231	-0.018158	-0.001068	-0.042267	0.1236	-0.21423	0.035248	-0.095062	-0.072021	0.053711	-0.002136	0.13473	0.048065	-0.005646	-0.20523	-0.12161	-0.003662	0.012665
28.021	-0.00885	-0.16068	-0.044861	0.001526	0.014648	0.038452	0.31448	0.005188	-0.10086	0.16373	0.10757	-0.0177	0.055084	0.14069	-0.020294	-0.017395	0.00885	-0.098114	-0.023956	-0.14755	0.019684	-0.17395	-0.064392	-0.01709	0.001373	0.066376	0.028687	-0.008392	-0.085144	-0.090942	-0.002136	0.013885
28.022	0.006866	-0.14511	-0.050659	-0.001678	0.01709	0.004883	0.34088	-0.002899	-0.062866	0.081177	0.19852	-0.012512	-0.041656	0.051575	0.044403	-0.008087	0.033722	-0.093994	-0.065002	0.00412	-0.007629	-0.22247	-0.080566	-0.017548	0.01297	0.010681	-0.021057	-0.002289	0.26932	-0.043182	-0.008545	0.019684
28.023	-0.012207	-0.14755	-0.047302	-0.003052	0.017548	-0.00412	0.34683	0.002747	-0.044556	0.062714	0.21469	-0.019226	-0.048218	0.054474	0.036011	0.009918	0.064392	-0.13321	-0.002899	0.14771	-0.072632	-0.17563	-0.060425	-0.029907	0.033264	-0.029297	0.02594	-0.006714	0.26199	-0.012207	-0.004883	0.014648
